<?xml version="1.0" encoding="UTF-8" standalone="no"?>
<svg xmlns="http://www.w3.org/2000/svg" version="1.1" viewBox="0 0 414 211">
   <polyline fill="none" points="164,35 184,35" stroke="rgb(0, 0, 0)" stroke-linecap="square" stroke-width="3.0"/>
   <polyline fill="none" points="244,115 264,115" stroke="rgb(0, 0, 0)" stroke-linecap="square" stroke-width="3.0"/>
   <polyline fill="none" points="324,115 344,115" stroke="rgb(0, 0, 0)" stroke-linecap="square" stroke-width="3.0"/>
   <polyline fill="none" points="164,105 174,105 174,115 184,115" stroke="rgb(0, 0, 0)" stroke-linecap="square" stroke-width="3.0"/>
   <polyline fill="none" points="164,175 174,175 174,135 184,135" stroke="rgb(0, 0, 0)" stroke-linecap="square" stroke-width="3.0"/>
   <polyline fill="none" points="244,55 254,55 254,95 264,95" stroke="rgb(0, 0, 0)" stroke-linecap="square" stroke-width="3.0"/>
   <polyline fill="none" points="244,175 254,175 254,135 264,135" stroke="rgb(0, 0, 0)" stroke-linecap="square" stroke-width="3.0"/>
   <polyline fill="none" points="94,85 104,85" stroke="rgb(0, 0, 0)" stroke-linecap="square" stroke-width="3.0"/>
   <polyline fill="none" points="94,125 104,125" stroke="rgb(0, 0, 0)" stroke-linecap="square" stroke-width="3.0"/>
   <polyline fill="none" points="184,195 174,195 174,205 94,205 94,195 94,175 94,155 104,155" stroke="rgb(0, 0, 0)" stroke-linecap="square" stroke-width="3.0"/>
   <polyline fill="none" points="94,195 104,195" stroke="rgb(0, 0, 0)" stroke-linecap="square" stroke-width="3.0"/>
   <polyline fill="none" points="94,15 104,15" stroke="rgb(0, 0, 0)" stroke-linecap="square" stroke-width="3.0"/>
   <polyline fill="none" points="184,95 174,95 174,5 94,5 94,15 94,35 94,55 104,55" stroke="rgb(0, 0, 0)" stroke-linecap="square" stroke-width="3.0"/>
   <polyline fill="none" points="184,75 94,75 94,85 94,105 94,125 94,135 164,135 164,155 184,155" stroke="rgb(0, 0, 0)" stroke-linecap="square" stroke-width="3.0"/>
   <ellipse cx="94.0" cy="195.0" fill="rgb(0, 0, 0)" rx="5.0" ry="5.0" stroke="none" stroke-width="3.0"/>
   <ellipse cx="94.0" cy="85.0" fill="rgb(0, 0, 0)" rx="5.0" ry="5.0" stroke="none" stroke-width="3.0"/>
   <ellipse cx="94.0" cy="105.0" fill="rgb(0, 0, 0)" rx="5.0" ry="5.0" stroke="none" stroke-width="3.0"/>
   <ellipse cx="94.0" cy="125.0" fill="rgb(0, 0, 0)" rx="5.0" ry="5.0" stroke="none" stroke-width="3.0"/>
   <ellipse cx="94.0" cy="15.0" fill="rgb(0, 0, 0)" rx="5.0" ry="5.0" stroke="none" stroke-width="3.0"/>
   <ellipse cx="94.0" cy="35.0" fill="rgb(0, 0, 0)" rx="5.0" ry="5.0" stroke="none" stroke-width="3.0"/>
   <ellipse cx="94.0" cy="175.0" fill="rgb(0, 0, 0)" rx="5.0" ry="5.0" stroke="none" stroke-width="3.0"/>
   <path d="M129.0,130.0 A25.0,25.0 90.0 0,0 129.0,80.0" fill="none" stroke="rgb(0, 0, 0)" stroke-width="2.0"/>
   <polyline fill="none" points="129,80 105,80 105,130 129,130" stroke="rgb(0, 0, 0)" stroke-linecap="square" stroke-width="2.0"/>
   <ellipse cx="159.0" cy="105.0" fill="none" rx="4.5" ry="4.5" stroke="rgb(0, 0, 0)" stroke-width="2.0"/>
   <path d="M129.0,200.0 A25.0,25.0 90.0 0,0 129.0,150.0" fill="none" stroke="rgb(0, 0, 0)" stroke-width="2.0"/>
   <polyline fill="none" points="129,150 105,150 105,200 129,200" stroke="rgb(0, 0, 0)" stroke-linecap="square" stroke-width="2.0"/>
   <ellipse cx="159.0" cy="175.0" fill="none" rx="4.5" ry="4.5" stroke="rgb(0, 0, 0)" stroke-width="2.0"/>
   <path d="M129.0,60.0 A25.0,25.0 90.0 0,0 129.0,10.0" fill="none" stroke="rgb(0, 0, 0)" stroke-width="2.0"/>
   <polyline fill="none" points="129,10 105,10 105,60 129,60" stroke="rgb(0, 0, 0)" stroke-linecap="square" stroke-width="2.0"/>
   <ellipse cx="159.0" cy="35.0" fill="none" rx="4.5" ry="4.5" stroke="rgb(0, 0, 0)" stroke-width="2.0"/>
   <path d="M209.0,80.0 A25.0,25.0 90.0 0,0 209.0,30.0" fill="none" stroke="rgb(0, 0, 0)" stroke-width="2.0"/>
   <polyline fill="none" points="209,30 185,30 185,80 209,80" stroke="rgb(0, 0, 0)" stroke-linecap="square" stroke-width="2.0"/>
   <ellipse cx="239.0" cy="55.0" fill="none" rx="4.5" ry="4.5" stroke="rgb(0, 0, 0)" stroke-width="2.0"/>
   <path d="M209.0,140.0 A25.0,25.0 90.0 0,0 209.0,90.0" fill="none" stroke="rgb(0, 0, 0)" stroke-width="2.0"/>
   <polyline fill="none" points="209,90 185,90 185,140 209,140" stroke="rgb(0, 0, 0)" stroke-linecap="square" stroke-width="2.0"/>
   <ellipse cx="239.0" cy="115.0" fill="none" rx="4.5" ry="4.5" stroke="rgb(0, 0, 0)" stroke-width="2.0"/>
   <path d="M209.0,200.0 A25.0,25.0 90.0 0,0 209.0,150.0" fill="none" stroke="rgb(0, 0, 0)" stroke-width="2.0"/>
   <polyline fill="none" points="209,150 185,150 185,200 209,200" stroke="rgb(0, 0, 0)" stroke-linecap="square" stroke-width="2.0"/>
   <ellipse cx="239.0" cy="175.0" fill="none" rx="4.5" ry="4.5" stroke="rgb(0, 0, 0)" stroke-width="2.0"/>
   <path d="M289.0,140.0 A25.0,25.0 90.0 0,0 289.0,90.0" fill="none" stroke="rgb(0, 0, 0)" stroke-width="2.0"/>
   <polyline fill="none" points="289,90 265,90 265,140 289,140" stroke="rgb(0, 0, 0)" stroke-linecap="square" stroke-width="2.0"/>
   <ellipse cx="319.0" cy="115.0" fill="none" rx="4.5" ry="4.5" stroke="rgb(0, 0, 0)" stroke-width="2.0"/>
   <polyline fill="none" points="348,115 345,115" stroke="rgb(0, 0, 0)" stroke-linecap="square" stroke-width="3.0"/>
   <polygon fill="none" points="374,106 384,115 374,124 350,124 350,106" stroke="rgb(0, 0, 0)" stroke-linecap="square" stroke-width="2.0"/>
   <text fill="rgb(0, 0, 0)" font-family="Monospaced" font-size="12" x="350.0" y="122.0">x1</text>
   <text fill="rgb(0, 0, 0)" font-family="Monospaced" font-size="16" font-weight="bold" x="386.0" y="123.0">f_1</text>
   <ellipse cx="344.0" cy="115.0" fill="rgb(0, 0, 0)" rx="2.0" ry="2.0" stroke="none" stroke-width="2.0"/>
   <polyline fill="none" points="69,175 74,175 94,175" stroke="rgb(0, 0, 0)" stroke-linecap="square" stroke-width="3.0"/>
   <polygon fill="none" points="59,184 69,175 59,166 35,166 35,184" stroke="rgb(0, 0, 0)" stroke-linecap="square" stroke-width="2.0"/>
   <text fill="rgb(0, 0, 0)" font-family="Monospaced" font-size="12" x="40.0" y="182.0">x1</text>
   <text fill="rgb(0, 0, 0)" font-family="Monospaced" font-size="16" font-weight="bold" x="5.0" y="183.0">x_3</text>
   <ellipse cx="74.0" cy="175.0" fill="rgb(0, 0, 0)" rx="2.0" ry="2.0" stroke="none" stroke-width="2.0"/>
   <polyline fill="none" points="69,35 74,35 94,35" stroke="rgb(0, 0, 0)" stroke-linecap="square" stroke-width="3.0"/>
   <polygon fill="none" points="59,44 69,35 59,26 35,26 35,44" stroke="rgb(0, 0, 0)" stroke-linecap="square" stroke-width="2.0"/>
   <text fill="rgb(0, 0, 0)" font-family="Monospaced" font-size="12" x="40.0" y="42.0">x1</text>
   <text fill="rgb(0, 0, 0)" font-family="Monospaced" font-size="16" font-weight="bold" x="5.0" y="43.0">x_1</text>
   <ellipse cx="74.0" cy="35.0" fill="rgb(0, 0, 0)" rx="2.0" ry="2.0" stroke="none" stroke-width="2.0"/>
   <polyline fill="none" points="69,105 74,105 94,105" stroke="rgb(0, 0, 0)" stroke-linecap="square" stroke-width="3.0"/>
   <polygon fill="none" points="59,114 69,105 59,96 35,96 35,114" stroke="rgb(0, 0, 0)" stroke-linecap="square" stroke-width="2.0"/>
   <text fill="rgb(0, 0, 0)" font-family="Monospaced" font-size="12" x="40.0" y="112.0">x1</text>
   <text fill="rgb(0, 0, 0)" font-family="Monospaced" font-size="16" font-weight="bold" x="5.0" y="113.0">x_2</text>
   <ellipse cx="74.0" cy="105.0" fill="rgb(0, 0, 0)" rx="2.0" ry="2.0" stroke="none" stroke-width="2.0"/>
</svg>
