<?xml version="1.0" encoding="UTF-8" standalone="no"?>
<svg xmlns="http://www.w3.org/2000/svg" version="1.1" viewBox="0 0 178 132">
   <polyline fill="none" points="119,95 139,95" stroke="rgb(0, 0, 0)" stroke-linecap="square" stroke-width="3.0"/>
   <polyline fill="none" points="129,35 139,35" stroke="rgb(0, 0, 0)" stroke-linecap="square" stroke-width="3.0"/>
   <polyline fill="none" points="59,115 69,115" stroke="rgb(0, 0, 0)" stroke-linecap="square" stroke-width="3.0"/>
   <polyline fill="none" points="39,15 49,15" stroke="rgb(0, 0, 0)" stroke-linecap="square" stroke-width="3.0"/>
   <ellipse cx="59.0" cy="115.0" fill="rgb(0, 0, 0)" rx="5.0" ry="5.0" stroke="none" stroke-width="3.0"/>
   <ellipse cx="49.0" cy="15.0" fill="rgb(0, 0, 0)" rx="5.0" ry="5.0" stroke="none" stroke-width="3.0"/>
   <path d="M94.0,120.0 A25.0,25.0 90.0 0,0 94.0,70.0" fill="none" stroke="rgb(0, 0, 0)" stroke-width="2.0"/>
   <polyline fill="none" points="94,70 70,70 70,120 94,120" stroke="rgb(0, 0, 0)" stroke-linecap="square" stroke-width="2.0"/>
   <polyline fill="none" points="69,15 69,15 49,15 49,75 69,75" stroke="rgb(0, 0, 0)" stroke-linecap="square" stroke-width="3.0"/>
   <polyline fill="none" points="39,115 59,115 59,55 69,55 69,55" stroke="rgb(0, 0, 0)" stroke-linecap="square" stroke-width="3.0"/>
   <path d=" M129.0,35.0 C109.0,10.0 109.0,10.0 79.0,10.0 C92.0,35.0 92.0,35.0 79.0,60.0 C109.0,60.0 109.0,60.0 129.0,35.0 Z" fill="none" stroke="rgb(0, 0, 0)" stroke-linecap="square" stroke-width="2.0"/>
   <path d=" M69.0,10.0 C82.0,35.0 82.0,35.0 69.0,60.0" fill="none" stroke="rgb(0, 0, 0)" stroke-linecap="square" stroke-width="2.0"/>
   <ellipse cx="150.0" cy="36.0" fill="none" rx="9.0" ry="9.0" stroke="rgb(0, 0, 0)" stroke-width="2.0"/>
   <text fill="rgb(0, 0, 0)" font-family="SansSerif" font-size="12" x="143.0" y="42.0">x1</text>
   <text fill="rgb(0, 0, 0)" font-family="SansSerif" font-size="16" font-weight="bold" x="161.0" y="43.0">P</text>
   <ellipse cx="139.0" cy="35.0" fill="rgb(0, 0, 0)" rx="2.0" ry="2.0" stroke="none" stroke-width="2.0"/>
   <ellipse cx="150.0" cy="96.0" fill="none" rx="9.0" ry="9.0" stroke="rgb(0, 0, 0)" stroke-width="2.0"/>
   <text fill="rgb(0, 0, 0)" font-family="SansSerif" font-size="12" x="143.0" y="102.0">x1</text>
   <text fill="rgb(0, 0, 0)" font-family="SansSerif" font-size="16" font-weight="bold" x="161.0" y="103.0">G</text>
   <ellipse cx="139.0" cy="95.0" fill="rgb(0, 0, 0)" rx="2.0" ry="2.0" stroke="none" stroke-width="2.0"/>
   <polyline fill="none" points="21,107 38,107" stroke="rgb(0, 0, 0)" stroke-linecap="square" stroke-width="2.0"/>
   <polyline fill="none" points="39,107 39,124" stroke="rgb(0, 0, 0)" stroke-linecap="square" stroke-width="2.0"/>
   <polyline fill="none" points="39,125 22,125" stroke="rgb(0, 0, 0)" stroke-linecap="square" stroke-width="2.0"/>
   <polyline fill="none" points="21,125 21,108" stroke="rgb(0, 0, 0)" stroke-linecap="square" stroke-width="2.0"/>
   <text fill="rgb(0, 0, 0)" font-family="SansSerif" font-size="12" x="23.0" y="122.0">x1</text>
   <text fill="rgb(0, 0, 0)" font-family="SansSerif" font-size="16" font-weight="bold" x="5.0" y="123.0">B</text>
   <ellipse cx="39.0" cy="115.0" fill="rgb(0, 0, 0)" rx="2.0" ry="2.0" stroke="none" stroke-width="2.0"/>
   <polyline fill="none" points="21,7 38,7" stroke="rgb(0, 0, 0)" stroke-linecap="square" stroke-width="2.0"/>
   <polyline fill="none" points="39,7 39,24" stroke="rgb(0, 0, 0)" stroke-linecap="square" stroke-width="2.0"/>
   <polyline fill="none" points="39,25 22,25" stroke="rgb(0, 0, 0)" stroke-linecap="square" stroke-width="2.0"/>
   <polyline fill="none" points="21,25 21,8" stroke="rgb(0, 0, 0)" stroke-linecap="square" stroke-width="2.0"/>
   <text fill="rgb(0, 0, 0)" font-family="SansSerif" font-size="12" x="23.0" y="22.0">x1</text>
   <text fill="rgb(0, 0, 0)" font-family="SansSerif" font-size="16" font-weight="bold" x="6.0" y="23.0">A</text>
   <ellipse cx="39.0" cy="15.0" fill="rgb(0, 0, 0)" rx="2.0" ry="2.0" stroke="none" stroke-width="2.0"/>
</svg>
