<?xml version="1.0" encoding="UTF-8" standalone="no"?>
<svg xmlns="http://www.w3.org/2000/svg" version="1.1" viewBox="0 0 503 591">
   <polyline fill="none" points="235,355 345,355" stroke="rgb(0, 0, 0)" stroke-linecap="square" stroke-width="3.0"/>
   <polyline fill="none" points="65,235 95,235" stroke="rgb(0, 0, 0)" stroke-linecap="square" stroke-width="4.0"/>
   <polyline fill="none" points="65,415 95,415" stroke="rgb(0, 0, 0)" stroke-linecap="square" stroke-width="4.0"/>
   <polyline fill="none" points="235,275 275,275 275,515" stroke="rgb(0, 0, 0)" stroke-linecap="square" stroke-width="3.0"/>
   <polyline fill="none" points="295,245 375,245 375,85" stroke="rgb(0, 0, 0)" stroke-linecap="square" stroke-width="4.0"/>
   <polyline fill="none" points="235,505 265,505 265,235 275,235" stroke="rgb(0, 0, 0)" stroke-linecap="square" stroke-width="4.0"/>
   <polyline fill="none" points="235,235 235,205 275,205" stroke="rgb(0, 0, 0)" stroke-linecap="square" stroke-width="4.0"/>
   <polyline fill="none" points="235,345 345,345" stroke="rgb(0, 0, 0)" stroke-linecap="square" stroke-width="3.0"/>
   <polyline fill="none" points="235,365 345,365" stroke="rgb(0, 0, 0)" stroke-linecap="square" stroke-width="3.0"/>
   <polyline fill="none" points="275,215 245,215 245,325 235,325" stroke="rgb(0, 0, 0)" stroke-linecap="square" stroke-width="4.0"/>
   <polyline fill="none" points="65,325 95,325" stroke="rgb(0, 0, 0)" stroke-linecap="square" stroke-width="4.0"/>
   <polyline fill="none" points="65,505 95,505" stroke="rgb(0, 0, 0)" stroke-linecap="square" stroke-width="4.0"/>
   <polyline fill="none" points="235,415 255,415 255,225 275,225" stroke="rgb(0, 0, 0)" stroke-linecap="square" stroke-width="4.0"/>
   <polyline fill="none" points="345,445 335,445 335,545 235,545" stroke="rgb(0, 0, 0)" stroke-linecap="square" stroke-width="3.0"/>
   <polyline fill="none" points="345,425 315,425 315,525 235,525" stroke="rgb(0, 0, 0)" stroke-linecap="square" stroke-width="3.0"/>
   <polyline fill="none" points="345,435 325,435 325,535 235,535" stroke="rgb(0, 0, 0)" stroke-linecap="square" stroke-width="3.0"/>
   <polyline fill="none" points="235,565 495,565 495,215 395,215 395,195" stroke="rgb(0, 0, 0)" stroke-linecap="square" stroke-width="3.0"/>
   <polyline fill="none" points="235,265 285,265 285,315 345,315" stroke="rgb(0, 0, 0)" stroke-linecap="square" stroke-width="3.0"/>
   <polyline fill="none" points="345,385 285,385 285,435 235,435" stroke="rgb(0, 0, 0)" stroke-linecap="square" stroke-width="3.0"/>
   <polyline fill="none" points="235,255 295,255 295,305 345,305" stroke="rgb(0, 0, 0)" stroke-linecap="square" stroke-width="3.0"/>
   <polyline fill="none" points="345,395 295,395 295,445 235,445" stroke="rgb(0, 0, 0)" stroke-linecap="square" stroke-width="3.0"/>
   <polyline fill="none" points="345,405 305,405 305,455 235,455" stroke="rgb(0, 0, 0)" stroke-linecap="square" stroke-width="3.0"/>
   <ellipse cx="275.0" cy="515.0" fill="rgb(0, 0, 0)" rx="5.0" ry="5.0" stroke="none" stroke-width="3.0"/>
   <polyline fill="none" points="65,235 51,235" stroke="rgb(0, 0, 0)" stroke-linecap="square" stroke-width="3.0"/>
   <polyline fill="none" points="65,325 51,325" stroke="rgb(0, 0, 0)" stroke-linecap="square" stroke-width="3.0"/>
   <polyline fill="none" points="65,415 51,415" stroke="rgb(0, 0, 0)" stroke-linecap="square" stroke-width="3.0"/>
   <polyline fill="none" points="65,505 51,505" stroke="rgb(0, 0, 0)" stroke-linecap="square" stroke-width="3.0"/>
   <polyline fill="none" points="46,415 51,415" stroke="rgb(0, 0, 0)" stroke-linecap="square" stroke-width="5.0"/>
   <polyline fill="none" points="51,236 51,504" stroke="rgb(0, 0, 0)" stroke-linecap="square" stroke-width="5.0"/>
   <text fill="rgb(0, 0, 0)" font-family="SansSerif" font-size="7" x="54.0" y="232.0">15-0</text>
   <text fill="rgb(0, 0, 0)" font-family="SansSerif" font-size="7" x="54.0" y="322.0">31-16</text>
   <text fill="rgb(0, 0, 0)" font-family="SansSerif" font-size="7" x="54.0" y="412.0">47-32</text>
   <text fill="rgb(0, 0, 0)" font-family="SansSerif" font-size="7" x="54.0" y="502.0">63-48</text>
   <ellipse cx="45.0" cy="415.0" fill="rgb(0, 0, 0)" rx="2.0" ry="2.0" stroke="none" stroke-width="5.0"/>
   <ellipse cx="65.0" cy="235.0" fill="rgb(0, 0, 0)" rx="2.0" ry="2.0" stroke="none" stroke-width="5.0"/>
   <ellipse cx="65.0" cy="325.0" fill="rgb(0, 0, 0)" rx="2.0" ry="2.0" stroke="none" stroke-width="5.0"/>
   <ellipse cx="65.0" cy="415.0" fill="rgb(0, 0, 0)" rx="2.0" ry="2.0" stroke="none" stroke-width="5.0"/>
   <ellipse cx="65.0" cy="505.0" fill="rgb(0, 0, 0)" rx="2.0" ry="2.0" stroke="none" stroke-width="5.0"/>
   <polyline fill="none" points="95,255 81,255" stroke="rgb(0, 0, 0)" stroke-linecap="square" stroke-width="3.0"/>
   <polyline fill="none" points="95,345 81,345" stroke="rgb(0, 0, 0)" stroke-linecap="square" stroke-width="3.0"/>
   <polyline fill="none" points="95,435 81,435" stroke="rgb(0, 0, 0)" stroke-linecap="square" stroke-width="3.0"/>
   <polyline fill="none" points="95,525 81,525" stroke="rgb(0, 0, 0)" stroke-linecap="square" stroke-width="3.0"/>
   <polyline fill="none" points="76,435 81,435" stroke="rgb(0, 0, 0)" stroke-linecap="square" stroke-width="5.0"/>
   <polyline fill="none" points="81,256 81,524" stroke="rgb(0, 0, 0)" stroke-linecap="square" stroke-width="5.0"/>
   <text fill="rgb(0, 0, 0)" font-family="SansSerif" font-size="7" x="84.0" y="252.0">15-0</text>
   <text fill="rgb(0, 0, 0)" font-family="SansSerif" font-size="7" x="84.0" y="342.0">31-16</text>
   <text fill="rgb(0, 0, 0)" font-family="SansSerif" font-size="7" x="84.0" y="432.0">47-32</text>
   <text fill="rgb(0, 0, 0)" font-family="SansSerif" font-size="7" x="84.0" y="522.0">63-48</text>
   <ellipse cx="75.0" cy="435.0" fill="rgb(0, 0, 0)" rx="2.0" ry="2.0" stroke="none" stroke-width="5.0"/>
   <ellipse cx="95.0" cy="255.0" fill="rgb(0, 0, 0)" rx="2.0" ry="2.0" stroke="none" stroke-width="5.0"/>
   <ellipse cx="95.0" cy="345.0" fill="rgb(0, 0, 0)" rx="2.0" ry="2.0" stroke="none" stroke-width="5.0"/>
   <ellipse cx="95.0" cy="435.0" fill="rgb(0, 0, 0)" rx="2.0" ry="2.0" stroke="none" stroke-width="5.0"/>
   <ellipse cx="95.0" cy="525.0" fill="rgb(0, 0, 0)" rx="2.0" ry="2.0" stroke="none" stroke-width="5.0"/>
   <polyline fill="none" points="275,205 289,205" stroke="rgb(0, 0, 0)" stroke-linecap="square" stroke-width="3.0"/>
   <polyline fill="none" points="275,215 289,215" stroke="rgb(0, 0, 0)" stroke-linecap="square" stroke-width="3.0"/>
   <polyline fill="none" points="275,225 289,225" stroke="rgb(0, 0, 0)" stroke-linecap="square" stroke-width="3.0"/>
   <polyline fill="none" points="275,235 289,235" stroke="rgb(0, 0, 0)" stroke-linecap="square" stroke-width="3.0"/>
   <polyline fill="none" points="289,206 289,239 294,244" stroke="rgb(0, 0, 0)" stroke-linecap="square" stroke-width="5.0"/>
   <text fill="rgb(0, 0, 0)" font-family="SansSerif" font-size="7" x="272.0" y="213.0">15-0</text>
   <text fill="rgb(0, 0, 0)" font-family="SansSerif" font-size="7" x="268.0" y="223.0">31-16</text>
   <text fill="rgb(0, 0, 0)" font-family="SansSerif" font-size="7" x="268.0" y="233.0">47-32</text>
   <text fill="rgb(0, 0, 0)" font-family="SansSerif" font-size="7" x="268.0" y="243.0">63-48</text>
   <ellipse cx="295.0" cy="245.0" fill="rgb(0, 0, 0)" rx="2.0" ry="2.0" stroke="none" stroke-width="5.0"/>
   <ellipse cx="275.0" cy="205.0" fill="rgb(0, 0, 0)" rx="2.0" ry="2.0" stroke="none" stroke-width="5.0"/>
   <ellipse cx="275.0" cy="215.0" fill="rgb(0, 0, 0)" rx="2.0" ry="2.0" stroke="none" stroke-width="5.0"/>
   <ellipse cx="275.0" cy="225.0" fill="rgb(0, 0, 0)" rx="2.0" ry="2.0" stroke="none" stroke-width="5.0"/>
   <ellipse cx="275.0" cy="235.0" fill="rgb(0, 0, 0)" rx="2.0" ry="2.0" stroke="none" stroke-width="5.0"/>
   <rect fill="rgb(0, 0, 0)" height="4" stroke="none" stroke-linecap="square" stroke-width="1.0" width="10" x="95" y="233"/>
   <text fill="rgb(64, 64, 64)" font-family="Dialog" font-size="12" x="110.0" y="239.0">A</text>
   <rect fill="rgb(0, 0, 0)" height="4" stroke="none" stroke-linecap="square" stroke-width="1.0" width="10" x="95" y="253"/>
   <text fill="rgb(64, 64, 64)" font-family="Dialog" font-size="12" x="110.0" y="259.0">B</text>
   <rect fill="rgb(0, 0, 0)" height="4" stroke="none" stroke-linecap="square" stroke-width="1.0" width="10" x="155" y="233"/>
   <text fill="rgb(64, 64, 64)" font-family="Dialog" font-size="12" x="142.0" y="239.0">P</text>
   <rect fill="rgb(0, 0, 0)" height="4" stroke="none" stroke-linecap="square" stroke-width="1.0" width="10" x="155" y="253"/>
   <text fill="rgb(64, 64, 64)" font-family="Dialog" font-size="12" x="141.0" y="259.0">G</text>
   <rect fill="rgb(0, 0, 0)" height="20" stroke="none" stroke-linecap="square" stroke-width="1.0" width="50" x="105" y="265"/>
   <polyline fill="none" points="105,225 154,225" stroke="rgb(0, 0, 0)" stroke-linecap="square" stroke-width="2.0"/>
   <polyline fill="none" points="155,225 155,284" stroke="rgb(0, 0, 0)" stroke-linecap="square" stroke-width="2.0"/>
   <polyline fill="none" points="155,285 106,285" stroke="rgb(0, 0, 0)" stroke-linecap="square" stroke-width="2.0"/>
   <polyline fill="none" points="105,285 105,226" stroke="rgb(0, 0, 0)" stroke-linecap="square" stroke-width="2.0"/>
   <text fill="rgb(255, 255, 255)" font-family="Dialog" font-size="14" font-weight="bold" x="114.0" y="280.0">pre2</text>
   <ellipse cx="95.0" cy="235.0" fill="rgb(0, 0, 0)" rx="2.0" ry="2.0" stroke="none" stroke-width="1.0"/>
   <ellipse cx="95.0" cy="255.0" fill="rgb(0, 0, 0)" rx="2.0" ry="2.0" stroke="none" stroke-width="1.0"/>
   <ellipse cx="165.0" cy="235.0" fill="rgb(0, 0, 0)" rx="2.0" ry="2.0" stroke="none" stroke-width="1.0"/>
   <ellipse cx="165.0" cy="255.0" fill="rgb(0, 0, 0)" rx="2.0" ry="2.0" stroke="none" stroke-width="1.0"/>
   <rect fill="rgb(0, 0, 0)" height="4" stroke="none" stroke-linecap="square" stroke-width="1.0" width="10" x="95" y="323"/>
   <text fill="rgb(64, 64, 64)" font-family="Dialog" font-size="12" x="110.0" y="329.0">A</text>
   <rect fill="rgb(0, 0, 0)" height="4" stroke="none" stroke-linecap="square" stroke-width="1.0" width="10" x="95" y="343"/>
   <text fill="rgb(64, 64, 64)" font-family="Dialog" font-size="12" x="110.0" y="349.0">B</text>
   <rect fill="rgb(0, 0, 0)" height="4" stroke="none" stroke-linecap="square" stroke-width="1.0" width="10" x="155" y="323"/>
   <text fill="rgb(64, 64, 64)" font-family="Dialog" font-size="12" x="142.0" y="329.0">P</text>
   <rect fill="rgb(0, 0, 0)" height="4" stroke="none" stroke-linecap="square" stroke-width="1.0" width="10" x="155" y="343"/>
   <text fill="rgb(64, 64, 64)" font-family="Dialog" font-size="12" x="141.0" y="349.0">G</text>
   <rect fill="rgb(0, 0, 0)" height="20" stroke="none" stroke-linecap="square" stroke-width="1.0" width="50" x="105" y="355"/>
   <polyline fill="none" points="105,315 154,315" stroke="rgb(0, 0, 0)" stroke-linecap="square" stroke-width="2.0"/>
   <polyline fill="none" points="155,315 155,374" stroke="rgb(0, 0, 0)" stroke-linecap="square" stroke-width="2.0"/>
   <polyline fill="none" points="155,375 106,375" stroke="rgb(0, 0, 0)" stroke-linecap="square" stroke-width="2.0"/>
   <polyline fill="none" points="105,375 105,316" stroke="rgb(0, 0, 0)" stroke-linecap="square" stroke-width="2.0"/>
   <text fill="rgb(255, 255, 255)" font-family="Dialog" font-size="14" font-weight="bold" x="114.0" y="370.0">pre2</text>
   <ellipse cx="95.0" cy="325.0" fill="rgb(0, 0, 0)" rx="2.0" ry="2.0" stroke="none" stroke-width="1.0"/>
   <ellipse cx="95.0" cy="345.0" fill="rgb(0, 0, 0)" rx="2.0" ry="2.0" stroke="none" stroke-width="1.0"/>
   <ellipse cx="165.0" cy="325.0" fill="rgb(0, 0, 0)" rx="2.0" ry="2.0" stroke="none" stroke-width="1.0"/>
   <ellipse cx="165.0" cy="345.0" fill="rgb(0, 0, 0)" rx="2.0" ry="2.0" stroke="none" stroke-width="1.0"/>
   <rect fill="rgb(0, 0, 0)" height="4" stroke="none" stroke-linecap="square" stroke-width="1.0" width="10" x="95" y="413"/>
   <text fill="rgb(64, 64, 64)" font-family="Dialog" font-size="12" x="110.0" y="419.0">A</text>
   <rect fill="rgb(0, 0, 0)" height="4" stroke="none" stroke-linecap="square" stroke-width="1.0" width="10" x="95" y="433"/>
   <text fill="rgb(64, 64, 64)" font-family="Dialog" font-size="12" x="110.0" y="439.0">B</text>
   <rect fill="rgb(0, 0, 0)" height="4" stroke="none" stroke-linecap="square" stroke-width="1.0" width="10" x="155" y="413"/>
   <text fill="rgb(64, 64, 64)" font-family="Dialog" font-size="12" x="142.0" y="419.0">P</text>
   <rect fill="rgb(0, 0, 0)" height="4" stroke="none" stroke-linecap="square" stroke-width="1.0" width="10" x="155" y="433"/>
   <text fill="rgb(64, 64, 64)" font-family="Dialog" font-size="12" x="141.0" y="439.0">G</text>
   <rect fill="rgb(0, 0, 0)" height="20" stroke="none" stroke-linecap="square" stroke-width="1.0" width="50" x="105" y="445"/>
   <polyline fill="none" points="105,405 154,405" stroke="rgb(0, 0, 0)" stroke-linecap="square" stroke-width="2.0"/>
   <polyline fill="none" points="155,405 155,464" stroke="rgb(0, 0, 0)" stroke-linecap="square" stroke-width="2.0"/>
   <polyline fill="none" points="155,465 106,465" stroke="rgb(0, 0, 0)" stroke-linecap="square" stroke-width="2.0"/>
   <polyline fill="none" points="105,465 105,406" stroke="rgb(0, 0, 0)" stroke-linecap="square" stroke-width="2.0"/>
   <text fill="rgb(255, 255, 255)" font-family="Dialog" font-size="14" font-weight="bold" x="114.0" y="460.0">pre2</text>
   <ellipse cx="95.0" cy="415.0" fill="rgb(0, 0, 0)" rx="2.0" ry="2.0" stroke="none" stroke-width="1.0"/>
   <ellipse cx="95.0" cy="435.0" fill="rgb(0, 0, 0)" rx="2.0" ry="2.0" stroke="none" stroke-width="1.0"/>
   <ellipse cx="165.0" cy="415.0" fill="rgb(0, 0, 0)" rx="2.0" ry="2.0" stroke="none" stroke-width="1.0"/>
   <ellipse cx="165.0" cy="435.0" fill="rgb(0, 0, 0)" rx="2.0" ry="2.0" stroke="none" stroke-width="1.0"/>
   <rect fill="rgb(0, 0, 0)" height="4" stroke="none" stroke-linecap="square" stroke-width="1.0" width="10" x="95" y="503"/>
   <text fill="rgb(64, 64, 64)" font-family="Dialog" font-size="12" x="110.0" y="509.0">A</text>
   <rect fill="rgb(0, 0, 0)" height="4" stroke="none" stroke-linecap="square" stroke-width="1.0" width="10" x="95" y="523"/>
   <text fill="rgb(64, 64, 64)" font-family="Dialog" font-size="12" x="110.0" y="529.0">B</text>
   <rect fill="rgb(0, 0, 0)" height="4" stroke="none" stroke-linecap="square" stroke-width="1.0" width="10" x="155" y="503"/>
   <text fill="rgb(64, 64, 64)" font-family="Dialog" font-size="12" x="142.0" y="509.0">P</text>
   <rect fill="rgb(0, 0, 0)" height="4" stroke="none" stroke-linecap="square" stroke-width="1.0" width="10" x="155" y="523"/>
   <text fill="rgb(64, 64, 64)" font-family="Dialog" font-size="12" x="141.0" y="529.0">G</text>
   <rect fill="rgb(0, 0, 0)" height="20" stroke="none" stroke-linecap="square" stroke-width="1.0" width="50" x="105" y="535"/>
   <polyline fill="none" points="105,495 154,495" stroke="rgb(0, 0, 0)" stroke-linecap="square" stroke-width="2.0"/>
   <polyline fill="none" points="155,495 155,554" stroke="rgb(0, 0, 0)" stroke-linecap="square" stroke-width="2.0"/>
   <polyline fill="none" points="155,555 106,555" stroke="rgb(0, 0, 0)" stroke-linecap="square" stroke-width="2.0"/>
   <polyline fill="none" points="105,555 105,496" stroke="rgb(0, 0, 0)" stroke-linecap="square" stroke-width="2.0"/>
   <text fill="rgb(255, 255, 255)" font-family="Dialog" font-size="14" font-weight="bold" x="114.0" y="550.0">pre2</text>
   <ellipse cx="95.0" cy="505.0" fill="rgb(0, 0, 0)" rx="2.0" ry="2.0" stroke="none" stroke-width="1.0"/>
   <ellipse cx="95.0" cy="525.0" fill="rgb(0, 0, 0)" rx="2.0" ry="2.0" stroke="none" stroke-width="1.0"/>
   <ellipse cx="165.0" cy="505.0" fill="rgb(0, 0, 0)" rx="2.0" ry="2.0" stroke="none" stroke-width="1.0"/>
   <ellipse cx="165.0" cy="525.0" fill="rgb(0, 0, 0)" rx="2.0" ry="2.0" stroke="none" stroke-width="1.0"/>
   <rect fill="rgb(0, 0, 0)" height="3" stroke="none" stroke-linecap="square" stroke-width="1.0" width="10" x="225" y="293"/>
   <text fill="rgb(64, 64, 64)" font-family="Dialog" font-size="12" x="212.0" y="280.0">C</text>
   <rect fill="rgb(0, 0, 0)" height="4" stroke="none" stroke-linecap="square" stroke-width="1.0" width="10" x="165" y="233"/>
   <rect fill="rgb(0, 0, 0)" height="4" stroke="none" stroke-linecap="square" stroke-width="1.0" width="10" x="165" y="253"/>
   <rect fill="rgb(0, 0, 0)" height="4" stroke="none" stroke-linecap="square" stroke-width="1.0" width="10" x="225" y="233"/>
   <text fill="rgb(64, 64, 64)" font-family="Dialog" font-size="12" x="212.0" y="239.0">S</text>
   <rect fill="rgb(0, 0, 0)" height="3" stroke="none" stroke-linecap="square" stroke-width="1.0" width="10" x="225" y="254"/>
   <text fill="rgb(64, 64, 64)" font-family="Dialog" font-size="12" x="212.0" y="259.0">P</text>
   <rect fill="rgb(0, 0, 0)" height="3" stroke="none" stroke-linecap="square" stroke-width="1.0" width="10" x="225" y="264"/>
   <text fill="rgb(64, 64, 64)" font-family="Dialog" font-size="12" x="211.0" y="269.0">G</text>
   <rect fill="rgb(0, 0, 0)" height="21" stroke="none" stroke-linecap="square" stroke-width="1.0" width="32" x="175" y="262"/>
   <polyline fill="none" points="175,225 224,225" stroke="rgb(0, 0, 0)" stroke-linecap="square" stroke-width="2.0"/>
   <polyline fill="none" points="225,225 225,304" stroke="rgb(0, 0, 0)" stroke-linecap="square" stroke-width="2.0"/>
   <polyline fill="none" points="225,305 176,305" stroke="rgb(0, 0, 0)" stroke-linecap="square" stroke-width="2.0"/>
   <polyline fill="none" points="175,305 175,226" stroke="rgb(0, 0, 0)" stroke-linecap="square" stroke-width="2.0"/>
   <text fill="rgb(255, 255, 255)" font-family="Dialog" font-size="14" font-weight="bold" x="177.0" y="278.0">cla2</text>
   <text fill="rgb(0, 0, 0)" font-family="SansSerif" font-size="12" x="178.0" y="241.0">Pi</text>
   <text fill="rgb(0, 0, 0)" font-family="SansSerif" font-size="12" x="178.0" y="258.0">Gi</text>
   <text fill="rgb(0, 0, 0)" font-family="SansSerif" font-size="12" x="200.0" y="299.0">C16</text>
   <rect fill="rgb(0, 0, 0)" height="3" stroke="none" stroke-linecap="square" stroke-width="1.0" width="10" x="225" y="274"/>
   <ellipse cx="165.0" cy="235.0" fill="rgb(0, 0, 0)" rx="2.0" ry="2.0" stroke="none" stroke-width="1.0"/>
   <ellipse cx="165.0" cy="255.0" fill="rgb(0, 0, 0)" rx="2.0" ry="2.0" stroke="none" stroke-width="1.0"/>
   <ellipse cx="235.0" cy="235.0" fill="rgb(0, 0, 0)" rx="2.0" ry="2.0" stroke="none" stroke-width="1.0"/>
   <ellipse cx="235.0" cy="255.0" fill="rgb(0, 0, 0)" rx="2.0" ry="2.0" stroke="none" stroke-width="1.0"/>
   <ellipse cx="235.0" cy="265.0" fill="rgb(0, 0, 0)" rx="2.0" ry="2.0" stroke="none" stroke-width="1.0"/>
   <ellipse cx="235.0" cy="275.0" fill="rgb(0, 0, 0)" rx="2.0" ry="2.0" stroke="none" stroke-width="1.0"/>
   <ellipse cx="235.0" cy="295.0" fill="rgb(0, 0, 0)" rx="2.0" ry="2.0" stroke="none" stroke-width="1.0"/>
   <rect fill="rgb(0, 0, 0)" height="3" stroke="none" stroke-linecap="square" stroke-width="1.0" width="10" x="225" y="383"/>
   <text fill="rgb(64, 64, 64)" font-family="Dialog" font-size="12" x="212.0" y="370.0">C</text>
   <rect fill="rgb(0, 0, 0)" height="4" stroke="none" stroke-linecap="square" stroke-width="1.0" width="10" x="165" y="323"/>
   <rect fill="rgb(0, 0, 0)" height="4" stroke="none" stroke-linecap="square" stroke-width="1.0" width="10" x="165" y="343"/>
   <rect fill="rgb(0, 0, 0)" height="4" stroke="none" stroke-linecap="square" stroke-width="1.0" width="10" x="225" y="323"/>
   <text fill="rgb(64, 64, 64)" font-family="Dialog" font-size="12" x="212.0" y="329.0">S</text>
   <rect fill="rgb(0, 0, 0)" height="3" stroke="none" stroke-linecap="square" stroke-width="1.0" width="10" x="225" y="344"/>
   <text fill="rgb(64, 64, 64)" font-family="Dialog" font-size="12" x="212.0" y="349.0">P</text>
   <rect fill="rgb(0, 0, 0)" height="3" stroke="none" stroke-linecap="square" stroke-width="1.0" width="10" x="225" y="354"/>
   <text fill="rgb(64, 64, 64)" font-family="Dialog" font-size="12" x="211.0" y="359.0">G</text>
   <rect fill="rgb(0, 0, 0)" height="21" stroke="none" stroke-linecap="square" stroke-width="1.0" width="32" x="175" y="352"/>
   <polyline fill="none" points="175,315 224,315" stroke="rgb(0, 0, 0)" stroke-linecap="square" stroke-width="2.0"/>
   <polyline fill="none" points="225,315 225,394" stroke="rgb(0, 0, 0)" stroke-linecap="square" stroke-width="2.0"/>
   <polyline fill="none" points="225,395 176,395" stroke="rgb(0, 0, 0)" stroke-linecap="square" stroke-width="2.0"/>
   <polyline fill="none" points="175,395 175,316" stroke="rgb(0, 0, 0)" stroke-linecap="square" stroke-width="2.0"/>
   <text fill="rgb(255, 255, 255)" font-family="Dialog" font-size="14" font-weight="bold" x="177.0" y="368.0">cla2</text>
   <text fill="rgb(0, 0, 0)" font-family="SansSerif" font-size="12" x="178.0" y="331.0">Pi</text>
   <text fill="rgb(0, 0, 0)" font-family="SansSerif" font-size="12" x="178.0" y="348.0">Gi</text>
   <text fill="rgb(0, 0, 0)" font-family="SansSerif" font-size="12" x="200.0" y="389.0">C16</text>
   <rect fill="rgb(0, 0, 0)" height="3" stroke="none" stroke-linecap="square" stroke-width="1.0" width="10" x="225" y="364"/>
   <ellipse cx="165.0" cy="325.0" fill="rgb(0, 0, 0)" rx="2.0" ry="2.0" stroke="none" stroke-width="1.0"/>
   <ellipse cx="165.0" cy="345.0" fill="rgb(0, 0, 0)" rx="2.0" ry="2.0" stroke="none" stroke-width="1.0"/>
   <ellipse cx="235.0" cy="325.0" fill="rgb(0, 0, 0)" rx="2.0" ry="2.0" stroke="none" stroke-width="1.0"/>
   <ellipse cx="235.0" cy="345.0" fill="rgb(0, 0, 0)" rx="2.0" ry="2.0" stroke="none" stroke-width="1.0"/>
   <ellipse cx="235.0" cy="355.0" fill="rgb(0, 0, 0)" rx="2.0" ry="2.0" stroke="none" stroke-width="1.0"/>
   <ellipse cx="235.0" cy="365.0" fill="rgb(0, 0, 0)" rx="2.0" ry="2.0" stroke="none" stroke-width="1.0"/>
   <ellipse cx="235.0" cy="385.0" fill="rgb(0, 0, 0)" rx="2.0" ry="2.0" stroke="none" stroke-width="1.0"/>
   <rect fill="rgb(0, 0, 0)" height="3" stroke="none" stroke-linecap="square" stroke-width="1.0" width="10" x="225" y="473"/>
   <text fill="rgb(64, 64, 64)" font-family="Dialog" font-size="12" x="212.0" y="460.0">C</text>
   <rect fill="rgb(0, 0, 0)" height="4" stroke="none" stroke-linecap="square" stroke-width="1.0" width="10" x="165" y="413"/>
   <rect fill="rgb(0, 0, 0)" height="4" stroke="none" stroke-linecap="square" stroke-width="1.0" width="10" x="165" y="433"/>
   <rect fill="rgb(0, 0, 0)" height="4" stroke="none" stroke-linecap="square" stroke-width="1.0" width="10" x="225" y="413"/>
   <text fill="rgb(64, 64, 64)" font-family="Dialog" font-size="12" x="212.0" y="419.0">S</text>
   <rect fill="rgb(0, 0, 0)" height="3" stroke="none" stroke-linecap="square" stroke-width="1.0" width="10" x="225" y="434"/>
   <text fill="rgb(64, 64, 64)" font-family="Dialog" font-size="12" x="212.0" y="439.0">P</text>
   <rect fill="rgb(0, 0, 0)" height="3" stroke="none" stroke-linecap="square" stroke-width="1.0" width="10" x="225" y="444"/>
   <text fill="rgb(64, 64, 64)" font-family="Dialog" font-size="12" x="211.0" y="449.0">G</text>
   <rect fill="rgb(0, 0, 0)" height="21" stroke="none" stroke-linecap="square" stroke-width="1.0" width="32" x="175" y="442"/>
   <polyline fill="none" points="175,405 224,405" stroke="rgb(0, 0, 0)" stroke-linecap="square" stroke-width="2.0"/>
   <polyline fill="none" points="225,405 225,484" stroke="rgb(0, 0, 0)" stroke-linecap="square" stroke-width="2.0"/>
   <polyline fill="none" points="225,485 176,485" stroke="rgb(0, 0, 0)" stroke-linecap="square" stroke-width="2.0"/>
   <polyline fill="none" points="175,485 175,406" stroke="rgb(0, 0, 0)" stroke-linecap="square" stroke-width="2.0"/>
   <text fill="rgb(255, 255, 255)" font-family="Dialog" font-size="14" font-weight="bold" x="177.0" y="458.0">cla2</text>
   <text fill="rgb(0, 0, 0)" font-family="SansSerif" font-size="12" x="178.0" y="421.0">Pi</text>
   <text fill="rgb(0, 0, 0)" font-family="SansSerif" font-size="12" x="178.0" y="438.0">Gi</text>
   <text fill="rgb(0, 0, 0)" font-family="SansSerif" font-size="12" x="200.0" y="479.0">C16</text>
   <rect fill="rgb(0, 0, 0)" height="3" stroke="none" stroke-linecap="square" stroke-width="1.0" width="10" x="225" y="454"/>
   <ellipse cx="165.0" cy="415.0" fill="rgb(0, 0, 0)" rx="2.0" ry="2.0" stroke="none" stroke-width="1.0"/>
   <ellipse cx="165.0" cy="435.0" fill="rgb(0, 0, 0)" rx="2.0" ry="2.0" stroke="none" stroke-width="1.0"/>
   <ellipse cx="235.0" cy="415.0" fill="rgb(0, 0, 0)" rx="2.0" ry="2.0" stroke="none" stroke-width="1.0"/>
   <ellipse cx="235.0" cy="435.0" fill="rgb(0, 0, 0)" rx="2.0" ry="2.0" stroke="none" stroke-width="1.0"/>
   <ellipse cx="235.0" cy="445.0" fill="rgb(0, 0, 0)" rx="2.0" ry="2.0" stroke="none" stroke-width="1.0"/>
   <ellipse cx="235.0" cy="455.0" fill="rgb(0, 0, 0)" rx="2.0" ry="2.0" stroke="none" stroke-width="1.0"/>
   <ellipse cx="235.0" cy="475.0" fill="rgb(0, 0, 0)" rx="2.0" ry="2.0" stroke="none" stroke-width="1.0"/>
   <rect fill="rgb(0, 0, 0)" height="3" stroke="none" stroke-linecap="square" stroke-width="1.0" width="10" x="225" y="563"/>
   <text fill="rgb(64, 64, 64)" font-family="Dialog" font-size="12" x="212.0" y="550.0">C</text>
   <rect fill="rgb(0, 0, 0)" height="4" stroke="none" stroke-linecap="square" stroke-width="1.0" width="10" x="165" y="503"/>
   <rect fill="rgb(0, 0, 0)" height="4" stroke="none" stroke-linecap="square" stroke-width="1.0" width="10" x="165" y="523"/>
   <rect fill="rgb(0, 0, 0)" height="4" stroke="none" stroke-linecap="square" stroke-width="1.0" width="10" x="225" y="503"/>
   <text fill="rgb(64, 64, 64)" font-family="Dialog" font-size="12" x="212.0" y="509.0">S</text>
   <rect fill="rgb(0, 0, 0)" height="3" stroke="none" stroke-linecap="square" stroke-width="1.0" width="10" x="225" y="524"/>
   <text fill="rgb(64, 64, 64)" font-family="Dialog" font-size="12" x="212.0" y="529.0">P</text>
   <rect fill="rgb(0, 0, 0)" height="3" stroke="none" stroke-linecap="square" stroke-width="1.0" width="10" x="225" y="534"/>
   <text fill="rgb(64, 64, 64)" font-family="Dialog" font-size="12" x="211.0" y="539.0">G</text>
   <rect fill="rgb(0, 0, 0)" height="21" stroke="none" stroke-linecap="square" stroke-width="1.0" width="32" x="175" y="532"/>
   <polyline fill="none" points="175,495 224,495" stroke="rgb(0, 0, 0)" stroke-linecap="square" stroke-width="2.0"/>
   <polyline fill="none" points="225,495 225,574" stroke="rgb(0, 0, 0)" stroke-linecap="square" stroke-width="2.0"/>
   <polyline fill="none" points="225,575 176,575" stroke="rgb(0, 0, 0)" stroke-linecap="square" stroke-width="2.0"/>
   <polyline fill="none" points="175,575 175,496" stroke="rgb(0, 0, 0)" stroke-linecap="square" stroke-width="2.0"/>
   <text fill="rgb(255, 255, 255)" font-family="Dialog" font-size="14" font-weight="bold" x="177.0" y="548.0">cla2</text>
   <text fill="rgb(0, 0, 0)" font-family="SansSerif" font-size="12" x="178.0" y="511.0">Pi</text>
   <text fill="rgb(0, 0, 0)" font-family="SansSerif" font-size="12" x="178.0" y="528.0">Gi</text>
   <text fill="rgb(0, 0, 0)" font-family="SansSerif" font-size="12" x="200.0" y="569.0">C16</text>
   <rect fill="rgb(0, 0, 0)" height="3" stroke="none" stroke-linecap="square" stroke-width="1.0" width="10" x="225" y="544"/>
   <ellipse cx="165.0" cy="505.0" fill="rgb(0, 0, 0)" rx="2.0" ry="2.0" stroke="none" stroke-width="1.0"/>
   <ellipse cx="165.0" cy="525.0" fill="rgb(0, 0, 0)" rx="2.0" ry="2.0" stroke="none" stroke-width="1.0"/>
   <ellipse cx="235.0" cy="505.0" fill="rgb(0, 0, 0)" rx="2.0" ry="2.0" stroke="none" stroke-width="1.0"/>
   <ellipse cx="235.0" cy="525.0" fill="rgb(0, 0, 0)" rx="2.0" ry="2.0" stroke="none" stroke-width="1.0"/>
   <ellipse cx="235.0" cy="535.0" fill="rgb(0, 0, 0)" rx="2.0" ry="2.0" stroke="none" stroke-width="1.0"/>
   <ellipse cx="235.0" cy="545.0" fill="rgb(0, 0, 0)" rx="2.0" ry="2.0" stroke="none" stroke-width="1.0"/>
   <ellipse cx="235.0" cy="565.0" fill="rgb(0, 0, 0)" rx="2.0" ry="2.0" stroke="none" stroke-width="1.0"/>
   <rect fill="rgb(0, 0, 0)" height="3" stroke="none" stroke-linecap="square" stroke-width="1.0" width="10" x="345" y="304"/>
   <text fill="rgb(64, 64, 64)" font-family="Dialog" font-size="12" x="360.0" y="309.0">P0</text>
   <rect fill="rgb(0, 0, 0)" height="3" stroke="none" stroke-linecap="square" stroke-width="1.0" width="10" x="345" y="344"/>
   <text fill="rgb(64, 64, 64)" font-family="Dialog" font-size="12" x="360.0" y="349.0">P1</text>
   <rect fill="rgb(0, 0, 0)" height="3" stroke="none" stroke-linecap="square" stroke-width="1.0" width="10" x="345" y="384"/>
   <text fill="rgb(64, 64, 64)" font-family="Dialog" font-size="12" x="360.0" y="389.0">P2</text>
   <rect fill="rgb(0, 0, 0)" height="3" stroke="none" stroke-linecap="square" stroke-width="1.0" width="10" x="345" y="424"/>
   <text fill="rgb(64, 64, 64)" font-family="Dialog" font-size="12" x="360.0" y="429.0">P3</text>
   <rect fill="rgb(0, 0, 0)" height="3" stroke="none" stroke-linecap="square" stroke-width="1.0" width="10" x="345" y="314"/>
   <text fill="rgb(64, 64, 64)" font-family="Dialog" font-size="12" x="360.0" y="319.0">G0</text>
   <rect fill="rgb(0, 0, 0)" height="3" stroke="none" stroke-linecap="square" stroke-width="1.0" width="10" x="345" y="354"/>
   <text fill="rgb(64, 64, 64)" font-family="Dialog" font-size="12" x="360.0" y="359.0">G1</text>
   <rect fill="rgb(0, 0, 0)" height="3" stroke="none" stroke-linecap="square" stroke-width="1.0" width="10" x="345" y="394"/>
   <text fill="rgb(64, 64, 64)" font-family="Dialog" font-size="12" x="360.0" y="399.0">G2</text>
   <rect fill="rgb(0, 0, 0)" height="3" stroke="none" stroke-linecap="square" stroke-width="1.0" width="10" x="345" y="434"/>
   <text fill="rgb(64, 64, 64)" font-family="Dialog" font-size="12" x="360.0" y="439.0">G3</text>
   <rect fill="rgb(0, 0, 0)" height="3" stroke="none" stroke-linecap="square" stroke-width="1.0" width="10" x="456" y="414"/>
   <text fill="rgb(64, 64, 64)" font-family="Dialog" font-size="12" x="435.0" y="421.0">C0</text>
   <rect fill="rgb(0, 0, 0)" height="3" stroke="none" stroke-linecap="square" stroke-width="1.0" width="10" x="455" y="304"/>
   <text fill="rgb(64, 64, 64)" font-family="Dialog" font-size="12" x="435.0" y="309.0">S0</text>
   <rect fill="rgb(0, 0, 0)" height="3" stroke="none" stroke-linecap="square" stroke-width="1.0" width="10" x="346" y="364"/>
   <text fill="rgb(64, 64, 64)" font-family="Dialog" font-size="12" x="359.0" y="369.0">C1</text>
   <rect fill="rgb(0, 0, 0)" height="3" stroke="none" stroke-linecap="square" stroke-width="1.0" width="10" x="455" y="314"/>
   <text fill="rgb(64, 64, 64)" font-family="Dialog" font-size="12" x="435.0" y="319.0">S1</text>
   <rect fill="rgb(0, 0, 0)" height="3" stroke="none" stroke-linecap="square" stroke-width="1.0" width="10" x="346" y="404"/>
   <text fill="rgb(64, 64, 64)" font-family="Dialog" font-size="12" x="358.0" y="409.0">C2</text>
   <rect fill="rgb(0, 0, 0)" height="3" stroke="none" stroke-linecap="square" stroke-width="1.0" width="10" x="455" y="324"/>
   <text fill="rgb(64, 64, 64)" font-family="Dialog" font-size="12" x="435.0" y="329.0">S2</text>
   <rect fill="rgb(0, 0, 0)" height="3" stroke="none" stroke-linecap="square" stroke-width="1.0" width="10" x="346" y="444"/>
   <text fill="rgb(64, 64, 64)" font-family="Dialog" font-size="12" x="359.0" y="449.0">C3</text>
   <rect fill="rgb(0, 0, 0)" height="3" stroke="none" stroke-linecap="square" stroke-width="1.0" width="10" x="455" y="334"/>
   <text fill="rgb(64, 64, 64)" font-family="Dialog" font-size="12" x="435.0" y="339.0">S3</text>
   <rect fill="rgb(0, 0, 0)" height="3" stroke="none" stroke-linecap="square" stroke-width="1.0" width="10" x="455" y="474"/>
   <text fill="rgb(64, 64, 64)" font-family="Dialog" font-size="12" x="434.0" y="479.0">C4</text>
   <rect fill="rgb(0, 0, 0)" height="20" stroke="none" stroke-linecap="square" stroke-width="1.0" width="100" x="355" y="485"/>
   <polyline fill="none" points="355,295 454,295" stroke="rgb(0, 0, 0)" stroke-linecap="square" stroke-width="2.0"/>
   <polyline fill="none" points="455,295 455,504" stroke="rgb(0, 0, 0)" stroke-linecap="square" stroke-width="2.0"/>
   <polyline fill="none" points="455,505 356,505" stroke="rgb(0, 0, 0)" stroke-linecap="square" stroke-width="2.0"/>
   <polyline fill="none" points="355,505 355,296" stroke="rgb(0, 0, 0)" stroke-linecap="square" stroke-width="2.0"/>
   <text fill="rgb(255, 255, 255)" font-family="Dialog" font-size="14" font-weight="bold" x="395.0" y="500.0">cla</text>
   <rect fill="rgb(0, 0, 0)" height="3" stroke="none" stroke-linecap="square" stroke-width="1.0" width="10" x="455" y="394"/>
   <rect fill="rgb(0, 0, 0)" height="3" stroke="none" stroke-linecap="square" stroke-width="1.0" width="10" x="454" y="403"/>
   <text fill="rgb(0, 0, 0)" font-family="SansSerif" font-size="12" x="441.0" y="410.0">G</text>
   <text fill="rgb(0, 0, 0)" font-family="SansSerif" font-size="12" x="443.0" y="399.0">P</text>
   <ellipse cx="345.0" cy="305.0" fill="rgb(0, 0, 0)" rx="2.0" ry="2.0" stroke="none" stroke-width="1.0"/>
   <ellipse cx="345.0" cy="315.0" fill="rgb(0, 0, 0)" rx="2.0" ry="2.0" stroke="none" stroke-width="1.0"/>
   <ellipse cx="345.0" cy="345.0" fill="rgb(0, 0, 0)" rx="2.0" ry="2.0" stroke="none" stroke-width="1.0"/>
   <ellipse cx="345.0" cy="355.0" fill="rgb(0, 0, 0)" rx="2.0" ry="2.0" stroke="none" stroke-width="1.0"/>
   <ellipse cx="345.0" cy="365.0" fill="rgb(0, 0, 0)" rx="2.0" ry="2.0" stroke="none" stroke-width="1.0"/>
   <ellipse cx="345.0" cy="385.0" fill="rgb(0, 0, 0)" rx="2.0" ry="2.0" stroke="none" stroke-width="1.0"/>
   <ellipse cx="345.0" cy="395.0" fill="rgb(0, 0, 0)" rx="2.0" ry="2.0" stroke="none" stroke-width="1.0"/>
   <ellipse cx="345.0" cy="405.0" fill="rgb(0, 0, 0)" rx="2.0" ry="2.0" stroke="none" stroke-width="1.0"/>
   <ellipse cx="345.0" cy="425.0" fill="rgb(0, 0, 0)" rx="2.0" ry="2.0" stroke="none" stroke-width="1.0"/>
   <ellipse cx="345.0" cy="435.0" fill="rgb(0, 0, 0)" rx="2.0" ry="2.0" stroke="none" stroke-width="1.0"/>
   <ellipse cx="345.0" cy="445.0" fill="rgb(0, 0, 0)" rx="2.0" ry="2.0" stroke="none" stroke-width="1.0"/>
   <ellipse cx="465.0" cy="305.0" fill="rgb(0, 0, 0)" rx="2.0" ry="2.0" stroke="none" stroke-width="1.0"/>
   <ellipse cx="465.0" cy="315.0" fill="rgb(0, 0, 0)" rx="2.0" ry="2.0" stroke="none" stroke-width="1.0"/>
   <ellipse cx="465.0" cy="325.0" fill="rgb(0, 0, 0)" rx="2.0" ry="2.0" stroke="none" stroke-width="1.0"/>
   <ellipse cx="465.0" cy="335.0" fill="rgb(0, 0, 0)" rx="2.0" ry="2.0" stroke="none" stroke-width="1.0"/>
   <ellipse cx="465.0" cy="395.0" fill="rgb(0, 0, 0)" rx="2.0" ry="2.0" stroke="none" stroke-width="1.0"/>
   <ellipse cx="465.0" cy="405.0" fill="rgb(0, 0, 0)" rx="2.0" ry="2.0" stroke="none" stroke-width="1.0"/>
   <ellipse cx="465.0" cy="415.0" fill="rgb(0, 0, 0)" rx="2.0" ry="2.0" stroke="none" stroke-width="1.0"/>
   <ellipse cx="465.0" cy="475.0" fill="rgb(0, 0, 0)" rx="2.0" ry="2.0" stroke="none" stroke-width="1.0"/>
   <polyline fill="none" points="399,195 396,195" stroke="rgb(0, 0, 0)" stroke-linecap="square" stroke-width="3.0"/>
   <polygon fill="none" points="425,186 435,195 425,204 401,204 401,186" stroke="rgb(0, 0, 0)" stroke-linecap="square" stroke-width="2.0"/>
   <text fill="rgb(0, 0, 0)" font-family="Monospaced" font-size="12" x="401.0" y="202.0">x1</text>
   <text fill="rgb(0, 0, 0)" font-family="Monospaced" font-size="16" font-weight="bold" x="437.0" y="203.0">Cout</text>
   <ellipse cx="395.0" cy="195.0" fill="rgb(0, 0, 0)" rx="2.0" ry="2.0" stroke="none" stroke-width="2.0"/>
   <polyline fill="none" points="342,85 345,85 345,195 35,195 35,435 75,435" stroke="rgb(0, 0, 0)" stroke-linecap="square" stroke-width="4.0"/>
   <polygon fill="none" points="330,164 340,85 330,6 236,6 236,164" stroke="rgb(0, 0, 0)" stroke-linecap="square" stroke-width="2.0"/>
   <text fill="rgb(0, 0, 0)" font-family="Monospaced" font-size="12" x="273.0" y="92.0">x64</text>
   <text fill="rgb(0, 0, 0)" font-family="Monospaced" font-size="16" font-weight="bold" x="221.0" y="93.0">B</text>
   <ellipse cx="345.0" cy="85.0" fill="rgb(0, 0, 0)" rx="2.0" ry="2.0" stroke="none" stroke-width="2.0"/>
   <polyline fill="none" points="212,85 215,85 215,185 25,185 25,415 45,415" stroke="rgb(0, 0, 0)" stroke-linecap="square" stroke-width="4.0"/>
   <polygon fill="none" points="200,164 210,85 200,6 106,6 106,164" stroke="rgb(0, 0, 0)" stroke-linecap="square" stroke-width="2.0"/>
   <text fill="rgb(0, 0, 0)" font-family="Monospaced" font-size="12" x="143.0" y="92.0">x64</text>
   <text fill="rgb(0, 0, 0)" font-family="Monospaced" font-size="16" font-weight="bold" x="92.0" y="93.0">A</text>
   <ellipse cx="215.0" cy="85.0" fill="rgb(0, 0, 0)" rx="2.0" ry="2.0" stroke="none" stroke-width="2.0"/>
   <polyline fill="none" points="80,155 85,155 95,155 95,175 5,175 5,585 275,585 275,515 485,515 485,415 465,415" stroke="rgb(0, 0, 0)" stroke-linecap="square" stroke-width="3.0"/>
   <polygon fill="none" points="70,164 80,155 70,146 46,146 46,164" stroke="rgb(0, 0, 0)" stroke-linecap="square" stroke-width="2.0"/>
   <text fill="rgb(0, 0, 0)" font-family="Monospaced" font-size="12" x="51.0" y="162.0">x1</text>
   <text fill="rgb(0, 0, 0)" font-family="Monospaced" font-size="16" font-weight="bold" x="17.0" y="163.0">Cin</text>
   <ellipse cx="85.0" cy="155.0" fill="rgb(0, 0, 0)" rx="2.0" ry="2.0" stroke="none" stroke-width="2.0"/>
   <polyline fill="none" points="379,85 378,85" stroke="rgb(0, 0, 0)" stroke-linecap="square" stroke-width="4.0"/>
   <polygon fill="none" points="475,6 485,85 475,164 381,164 381,6" stroke="rgb(0, 0, 0)" stroke-linecap="square" stroke-width="2.0"/>
   <text fill="rgb(0, 0, 0)" font-family="Monospaced" font-size="12" x="413.0" y="92.0">x64</text>
   <text fill="rgb(0, 0, 0)" font-family="Monospaced" font-size="16" font-weight="bold" x="487.0" y="93.0">S</text>
   <ellipse cx="375.0" cy="85.0" fill="rgb(0, 0, 0)" rx="2.0" ry="2.0" stroke="none" stroke-width="2.0"/>
</svg>
